<?xml version="1.0" encoding="UTF-8"?>
<!-- Uploaded to: SVG Repo, www.svgrepo.com, Generator: SVG Repo Mixer Tools -->
<svg width="800px" height="800px" viewBox="-4 0 34 34" version="1.1" xmlns="http://www.w3.org/2000/svg" xmlns:xlink="http://www.w3.org/1999/xlink">
    
    <title>card</title>
    <desc>Created with Sketch.</desc>
    <defs>
        <linearGradient x1="50%" y1="0%" x2="50%" y2="100%" id="linearGradient-1">
            <stop stop-color="#F8F8FB" offset="0%">
</stop>
            <stop stop-color="#EEEFF6" offset="100%">
</stop>
        </linearGradient>
        <linearGradient x1="50%" y1="0%" x2="50%" y2="100%" id="linearGradient-2">
            <stop stop-color="#E83E3E" offset="0%">
</stop>
            <stop stop-color="#CD1D1D" offset="100%">
</stop>
        </linearGradient>
        <linearGradient x1="50%" y1="0%" x2="50%" y2="100%" id="linearGradient-3">
            <stop stop-color="#E83E3E" offset="0%">
</stop>
            <stop stop-color="#CD1D1D" offset="100%">
</stop>
        </linearGradient>
    </defs>
    <g id="icons" stroke="none" stroke-width="1" fill="none" fill-rule="evenodd">
        <g id="ui-gambling-website-lined-icnos-casinoshunter" transform="translate(-607.000000, -2035.000000)" fill-rule="nonzero">
            <g id="4" transform="translate(50.000000, 1871.000000)">
                <g id="card" transform="translate(557.000000, 164.000000)">
                    <path d="M22,0 C24.209139,0 26,1.790861 26,4 L26,30 C26,32.209139 24.209139,34 22,34 L4,34 C1.790861,34 0,32.209139 0,30 L0,4 C0,1.790861 1.790861,0 4,0 L22,0 Z" id="Path" fill="url(#linearGradient-1)">
</path>
                    <path d="M7,4 C7.55228475,4 8,4.44771525 8,5 C8,5.55228475 7.55228475,6 7,6 L5,6 C4.44771525,6 4,5.55228475 4,5 C4,4.44771525 4.44771525,4 5,4 L7,4 Z" id="Path" fill="url(#linearGradient-2)">
</path>
                    <path d="M21,28 C21.5522847,28 22,28.4477153 22,29 C22,29.5522847 21.5522847,30 21,30 L19,30 C18.4477153,30 18,29.5522847 18,29 C18,28.4477153 18.4477153,28 19,28 L21,28 Z" id="Path" fill="url(#linearGradient-2)">
</path>
                    <path d="M15.1834466,12 C16.0633895,12 16.9065564,12.3491328 17.5284576,12.9710411 C18.1503981,13.5929888 18.5,14.4366936 18.5,15.3160709 C18.5,16.1907326 18.1544804,17.0297011 17.54717,17.6415844 L13.7271095,21.6866124 C13.5384083,21.8866586 13.2750431,22 13,22 C12.7249569,22 12.4615917,21.8866586 12.2731125,21.6868476 L8.46072031,17.6502716 C7.84534657,17.0294343 7.5,16.1904969 7.5,15.3160709 C7.5,14.4364593 7.84925269,13.5928232 8.47102766,12.9710411 C9.09280374,12.349258 9.93643325,12 10.8160387,12 C11.6218548,12 12.3974777,12.2931179 13,12.8203574 L13.1684891,12.682402 C13.7436981,12.2422031 14.4509607,12 15.1834466,12 Z M15.1834466,13.9995997 C14.8845604,13.9995997 14.5957191,14.1015983 14.3638874,14.2861479 L14.2529397,14.3852119 L13.7067026,14.9319694 C13.345939,15.2917878 12.7790146,15.3194661 12.3869767,15.0146383 L12.2928312,14.9315039 L11.7464451,14.3851113 C11.5000847,14.1383754 11.1651909,13.9995997 10.8160387,13.9995997 C10.4670315,13.9995997 10.1324571,14.1382839 9.88536517,14.3853786 C9.63854314,14.6322035 9.50010294,14.9666725 9.50010294,15.3160709 C9.50010294,15.6155552 9.60181411,15.9040711 9.79194136,16.1416073 L9.89431144,16.2559419 L12.9999876,19.5437099 L16.1043404,16.2570577 L16.2134565,16.1359226 C16.3980278,15.9038472 16.4998971,15.6151786 16.4998971,15.3160709 C16.4998971,14.967112 16.3612417,14.6323617 16.1146348,14.3853786 C15.8676552,14.1383962 15.5326125,13.9995997 15.1834466,13.9995997 Z M8.50736181,15.4995282 L8.5,15.3160709 L8.5038446,15.4494799 L8.50736181,15.4995282 Z M14.8379362,13.0255437 L14.7295157,13.0448867 L14.4668309,13.1133723 C14.5875379,13.0740639 14.7116449,13.0446197 14.8379362,13.0255437 Z M9.31312512,13.5536724 L9.17813849,13.6781439 C9.22171086,13.6348189 9.26671076,13.5932665 9.31312512,13.5536724 Z" id="Shape" fill="url(#linearGradient-3)">
</path>
                </g>
            </g>
        </g>
    </g>
</svg>