<?xml version="1.0" ?>
<!-- Uploaded to: SVG Repo, www.svgrepo.com, Generator: SVG Repo Mixer Tools -->
<svg width="800px" height="800px" viewBox="0 0 500 500" id="Layer_1" version="1.1" xml:space="preserve" xmlns="http://www.w3.org/2000/svg" xmlns:xlink="http://www.w3.org/1999/xlink">
<style type="text/css">
	.st0{fill:#F26E91;}
	.st1{fill:#00A779;}
	.st2{fill:#C4FFC9;}
	.st3{fill:#AB630A;}
	.st4{fill:#C98C40;}
	.st5{fill:#15AA78;}
	.st6{fill:#FF9000;}
	.st7{fill:#FCEECF;}
	.st8{fill:#FFE940;}
	.st9{fill:#F0E3CE;}
	.st10{fill:#FFB5C5;}
	.st11{fill:#91EDFF;}
	.st12{fill:#7191F0;}
	.st13{fill:#363636;}
	.st14{fill:#565656;}
	.st15{fill:#F3DF4D;}
	.st16{fill:#CD4A77;}
	.st17{fill:#577AE6;}
	.st18{fill:#F4D100;}
</style>
<g id="glass">
<g>
<g>
<path class="st11" d="M237.95,246.15L132.76,118.57c-5.17-6.27-0.71-15.73,7.42-15.73l248.75,0c8.13,0,12.59,9.46,7.42,15.73     L291.16,246.15C277.37,262.88,251.74,262.88,237.95,246.15z"/>
<path class="st0" d="M242.47,229.03l-86.03-104.34c-2.42-2.94-0.33-7.37,3.48-7.37l209.29,0c3.81,0,5.9,4.43,3.48,7.37     l-86.03,104.34C275.19,242.92,253.92,242.92,242.47,229.03z"/>
<g>
<rect class="st11" height="213.68" width="17.33" x="255.89" y="249.71"/>
<path class="st11" d="M264.56,463.32c-37.42-0.5-59.28,19.48-59.28,19.48h56.39h5.8h56.39      C323.84,482.8,301.98,462.82,264.56,463.32z"/>
</g>
</g>
<g>
<path class="st11" d="M214.7,161.77l17.09-6.22c2.76-1.01,5.82,0.42,6.82,3.18l6.22,17.09c1.01,2.76-0.42,5.82-3.18,6.82     l-17.09,6.22c-2.76,1.01-5.82-0.42-6.82-3.18l-6.22-17.09C210.52,165.82,211.94,162.77,214.7,161.77z"/>
<path class="st11" d="M296.26,123.8l15.75,9.09c2.55,1.47,3.42,4.72,1.95,7.27l-9.09,15.75c-1.47,2.55-4.72,3.42-7.27,1.95     l-15.75-9.09c-2.55-1.47-3.42-4.72-1.95-7.27l9.09-15.75C290.46,123.2,293.72,122.33,296.26,123.8z"/>
<path class="st11" d="M275.76,191.81l15.75,9.09c2.55,1.47,3.42,4.72,1.95,7.27l-9.09,15.75c-1.47,2.55-4.72,3.42-7.27,1.95     l-15.75-9.09c-2.55-1.47-3.42-4.72-1.95-7.27l9.09-15.75C269.97,191.21,273.22,190.34,275.76,191.81z"/>
</g>
</g>
<polygon class="st11" points="148.95,22.91 95.29,57.17 101,66.11 154.66,31.85 228.17,150.79 237.12,145.08 163.6,26.14    157.89,17.2  "/>
<g>
<circle class="st18" cx="371.41" cy="114.64" r="33.3"/>
<circle class="st8" cx="371.41" cy="114.64" r="23.55"/>
</g>
</g>
</svg>